<svg width="256" height="256" viewBox="0 0 256 256" fill="none" xmlns="http://www.w3.org/2000/svg">
<g clip-path="url(#clip0_2175_22431)">
<path d="M256 128C256 57.3075 198.692 0 128 0C57.3075 0 0 57.3075 0 128C0 198.692 57.3075 256 128 256C198.692 256 256 198.692 256 128Z" fill="#512DBC"/>
<path d="M194.487 82.697C198.816 82.697 202.325 86.2244 202.325 90.5758C202.325 94.8356 198.962 98.3059 194.759 98.4499L185.183 112.889L185.078 113.044C182.921 116.187 179.386 118.089 175.588 118.15L175.401 118.152L163.794 118.151C164.881 120.652 165.718 123.289 166.271 126.03L190.951 126.03L191.077 126.028C192.297 125.989 193.43 125.379 194.139 124.381L194.211 124.276L203.432 110.373C202.729 109.192 202.325 107.81 202.325 106.333C202.325 101.982 205.834 98.4545 210.162 98.4545C214.491 98.4545 218 101.982 218 106.333C218 110.636 214.569 114.134 210.306 114.211L200.733 128.646L200.628 128.802C198.471 131.945 194.935 133.847 191.138 133.908L190.951 133.909L167.055 133.909C167.055 136.607 166.785 139.243 166.271 141.788L190.951 141.788C194.819 141.788 198.436 143.701 200.628 146.895L200.733 147.051L210.306 161.486C214.569 161.563 218 165.061 218 169.364C218 173.715 214.491 177.242 210.162 177.242C205.834 177.242 202.325 173.715 202.325 169.364C202.325 167.887 202.729 166.505 203.432 165.324L194.211 151.421C193.508 150.36 192.339 149.71 191.077 149.669L190.951 149.667L163.794 149.667C162.572 152.48 161.032 155.122 159.22 157.546L175.275 157.545C179.144 157.545 182.76 159.458 184.952 162.653L185.057 162.808L194.631 177.244C198.893 177.321 202.325 180.818 202.325 185.121C202.325 189.473 198.816 193 194.487 193C190.158 193 186.649 189.473 186.649 185.121C186.649 183.645 187.053 182.263 187.756 181.082L178.536 167.178C177.833 166.118 176.664 165.467 175.402 165.426L175.275 165.424L151.383 165.425C144.832 170.372 136.69 173.303 127.867 173.303C119.044 173.303 110.901 170.372 104.351 165.425L80.7247 165.424L80.5982 165.426C79.3781 165.466 78.2455 166.075 77.536 167.074L77.4641 167.178L68.2438 181.082C68.9467 182.263 69.3507 183.645 69.3507 185.121C69.3507 189.473 65.8416 193 61.513 193C57.1844 193 53.6753 189.473 53.6753 185.121C53.6753 180.818 57.107 177.321 61.3694 177.244L70.9427 162.808L71.0477 162.653C73.2044 159.51 76.74 157.607 80.5378 157.547L80.7247 157.545L96.5139 157.546C94.7021 155.122 93.1622 152.48 91.9396 149.667L65.0494 149.667L64.9229 149.669C63.7028 149.708 62.5701 150.318 61.8606 151.316L61.7888 151.421L52.5685 165.325C53.2714 166.506 53.6753 167.887 53.6753 169.364C53.6753 173.715 50.1663 177.242 45.8377 177.242C41.509 177.242 38 173.715 38 169.364C38 165.061 41.4317 161.563 45.694 161.486L55.2674 147.051L55.3724 146.895C57.5291 143.752 61.0647 141.85 64.8624 141.789L65.0494 141.788L89.4626 141.788C88.9787 139.392 88.7111 136.917 88.6813 134.385L88.6785 133.909L65.0494 133.909C61.181 133.909 57.5644 131.996 55.3724 128.802L55.2674 128.646L45.694 114.211C41.4317 114.134 38 110.636 38 106.333C38 101.982 41.509 98.4545 45.8377 98.4545C50.1663 98.4545 53.6753 101.982 53.6753 106.333C53.6753 107.81 53.2714 109.191 52.5685 110.372L61.7888 124.276C62.4921 125.337 63.6607 125.987 64.9229 126.028L65.0494 126.03L89.4626 126.03C90.0159 123.289 90.8523 120.652 91.9396 118.151L80.5991 118.152C76.7307 118.152 73.1142 116.239 70.9221 113.044L70.8171 112.889L61.2412 98.4499C57.0384 98.3059 53.6753 94.8356 53.6753 90.5758C53.6753 86.2244 57.1844 82.697 61.513 82.697C65.8416 82.697 69.3507 86.2244 69.3507 90.5758C69.3507 92.0937 68.9236 93.5114 68.1838 94.714L77.3385 108.519C78.0418 109.579 79.2105 110.23 80.4726 110.271L80.5991 110.273L96.5139 110.272C103.664 100.704 115.046 94.5152 127.867 94.5152C140.688 94.5152 152.07 100.704 159.22 110.272L175.401 110.273L175.527 110.271C176.747 110.231 177.88 109.622 178.59 108.623L178.662 108.519L187.816 94.714C187.076 93.5114 186.649 92.0937 186.649 90.5758C186.649 86.2244 190.158 82.697 194.487 82.697ZM127.867 102.394C110.552 102.394 96.5162 116.504 96.5162 133.909C96.5162 151.314 110.552 165.424 127.867 165.424C145.181 165.424 159.218 151.314 159.218 133.909C159.218 116.504 145.181 102.394 127.867 102.394ZM127.867 110.273C140.853 110.273 151.38 120.855 151.38 133.909C151.38 146.963 140.853 157.545 127.867 157.545C114.881 157.545 104.354 146.963 104.354 133.909C104.354 120.855 114.881 110.273 127.867 110.273ZM155.299 63L155.558 63.0021C164.096 63.1413 170.974 70.1419 170.974 78.7576C170.974 87.4602 163.956 94.5152 155.299 94.5152C146.641 94.5152 139.623 87.4602 139.623 78.7576C139.623 74.4813 141.318 70.6028 144.069 67.7637L144.215 67.6153L155.299 78.7576V63ZM100.435 63V78.7576L111.519 67.6153C114.356 70.4668 116.11 74.4062 116.11 78.7576C116.11 87.4602 109.092 94.5152 100.435 94.5152C91.7778 94.5152 84.7597 87.4602 84.7597 78.7576C84.7597 70.1419 91.6381 63.1413 100.176 63.0021L100.435 63Z" fill="white"/>
</g>
<defs>
<clipPath id="clip0_2175_22431">
<rect width="256" height="256" fill="white"/>
</clipPath>
</defs>
</svg>
