<svg width="256" height="256" viewBox="0 0 256 256" fill="none" xmlns="http://www.w3.org/2000/svg">
<g clip-path="url(#clip0_2175_22421)">
<path d="M256 128C256 57.3075 198.692 0 128 0C57.3075 0 0 57.3075 0 128C0 198.692 57.3075 256 128 256C198.692 256 256 198.692 256 128Z" fill="#DB378A"/>
<path d="M70.9154 83C76.8547 83 81.6697 87.7988 81.6697 93.7186C81.6697 98.3534 78.7176 102.302 74.5853 103.797L74.5859 159.322C82.2787 158.983 89.4323 157.58 95.788 155.255L95.7878 112.687C91.6555 111.191 88.7034 107.243 88.7034 102.608C88.7034 96.6886 93.5184 91.8898 99.4577 91.8898C105.397 91.8898 110.212 96.6886 110.212 102.608C110.212 107.243 107.26 111.191 103.128 112.687L103.128 151.97C110.194 148.163 115.856 143.01 119.61 136.786C117.063 134.498 115.462 131.185 115.462 127.5C115.462 120.598 121.075 115.003 128 115.003C128.569 115.003 129.128 115.041 129.677 115.114C139.227 98.5649 159.703 88.5414 184.134 88.288L185.085 88.2831H224.33C226.357 88.2831 228 89.9206 228 91.9406C228 93.8885 226.472 95.4807 224.546 95.592L224.33 95.5982H217.297L217.297 151.203C221.429 152.698 224.381 156.646 224.381 161.281C224.381 167.201 219.566 172 213.627 172C207.688 172 202.873 167.201 202.873 161.281C202.873 156.646 205.825 152.698 209.958 151.203L209.957 95.5982H188.754L188.755 151.203C192.887 152.698 195.839 156.646 195.839 161.281C195.839 167.201 191.024 172 185.085 172C179.146 172 174.33 167.201 174.33 161.281C174.33 156.646 177.282 152.698 181.415 151.203L181.414 95.6783C173.721 96.0168 166.568 97.4198 160.212 99.7451L160.212 142.313C164.345 143.808 167.297 147.756 167.297 152.392C167.297 158.311 162.481 163.11 156.542 163.11C150.603 163.11 145.788 158.311 145.788 152.392C145.788 147.756 148.74 143.808 152.872 142.313L152.872 103.03C145.806 106.837 140.144 111.99 136.39 118.214C138.937 120.501 140.538 123.814 140.538 127.5C140.538 134.401 134.924 139.997 128 139.997C127.431 139.997 126.872 139.959 126.323 139.886C116.773 156.435 96.2969 166.459 71.8657 166.712L70.9154 166.717H31.6697C29.643 166.717 28 165.079 28 163.059C28 161.112 29.5277 159.519 31.4541 159.408L31.6697 159.402L38.7034 159.401L38.7034 103.797C34.571 102.302 31.6188 98.3535 31.6188 93.7186C31.6188 87.7988 36.4338 83 42.3731 83C48.3124 83 53.1274 87.7988 53.1274 93.7186C53.1274 98.353 50.1757 102.301 46.044 103.796L46.0428 159.401H67.2453L67.2455 103.797C63.1132 102.302 60.1611 98.3534 60.1611 93.7186C60.1611 87.7988 64.9761 83 70.9154 83Z" fill="white"/>
</g>
<defs>
<clipPath id="clip0_2175_22421">
<rect width="256" height="256" fill="white"/>
</clipPath>
</defs>
</svg>
