<svg width="256" height="256" viewBox="0 0 256 256" fill="none" xmlns="http://www.w3.org/2000/svg">
<g clip-path="url(#clip0_2175_22408)">
<path d="M256 128C256 57.3075 198.692 0 128 0C57.3075 0 0 57.3075 0 128C0 198.692 57.3075 256 128 256C198.692 256 256 198.692 256 128Z" fill="#512DBC"/>
<path d="M110.756 130.504C110.473 130.081 108.62 131.066 107.55 131.129C106.539 131.189 108.62 129.072 107.55 129.359C106.079 129.754 101.453 132.739 100.094 134.428C97.2758 137.931 96.6158 143.455 98.7115 146.987C98.9945 147.463 99.3064 147.868 99.6131 148.225L99.8738 148.52L100.483 149.176L100.696 149.414C101.135 149.922 101.402 150.369 101.278 150.911C100.906 152.543 97.3417 153.495 95.3545 153.267C92.3812 152.924 89.3338 149.518 86.9128 144.397L81.955 149.092L90.2034 160.358L90.2872 160.484C90.6246 161.038 90.6303 161.732 90.3021 162.291L90.2204 162.418L83.4594 171.982L89.3448 185.669C100.772 192.708 114.152 198.357 127.145 198.4L117.078 190.029L116.953 189.946C116.429 189.564 116.155 188.926 116.241 188.285L116.265 188.148L118.671 176.993L106.402 169.678L106.283 169.601C105.783 169.246 105.502 168.659 105.541 168.05L105.555 167.909L108.848 145.118C108.234 144.693 105.224 142.945 105.769 139.096C105.92 138.027 107.239 135.997 109.726 133.007L109.995 132.652C110.68 131.727 111.083 130.991 110.756 130.504ZM117.388 142.304C115.971 143.854 114.203 145.36 112.349 145.795L109.251 167.248L121.596 174.609L121.722 174.691C122.253 175.072 122.531 175.714 122.445 176.359L122.421 176.498L120.014 187.663L133.382 195.783C136.782 195.515 150.361 195.132 167.226 187.778C169.219 186.909 173.078 184.549 178.805 180.697L163.47 182.268L163.326 182.297C162.362 182.453 161.446 181.802 161.285 180.842L161.268 180.71L159.712 163.698L137.936 173.316L137.798 173.37C137.054 173.628 136.226 173.368 135.767 172.732L135.685 172.609L117.388 142.304ZM82.5773 128.855L80.1692 132.905L80.0847 133.034C79.7539 133.494 79.2208 133.769 78.6515 133.774L78.5085 133.77L67.0473 132.955L60.7534 147.388C63.2259 156.306 67.5361 164.827 73.832 172.301C76.8897 175.931 81.6941 182.365 85.283 185.123L79.7929 172.465L79.7388 172.322C79.5798 171.842 79.6352 171.317 79.8908 170.88L79.9735 170.751L86.5732 161.418L78.1564 149.921L78.0745 149.799C77.6698 149.138 77.7453 148.29 78.2594 147.71L78.3681 147.598L85.4523 140.89C84.1436 137.316 83.1304 133.199 82.5773 128.855ZM147.101 131.16L132.784 142.226L132.658 142.316C131.97 142.759 131.062 142.676 130.467 142.116L130.359 142.005L123.094 133.882C122.445 135.423 121.524 136.825 120.594 138.153L119.754 139.339L137.93 169.444L160.538 159.459L160.667 159.407C161.707 159.039 162.838 159.7 163.018 160.784L163.035 160.916L164.629 178.335L178.751 174.865C190.663 164.383 197.213 154.525 198.4 145.292L188.278 149.048C187.009 149.588 186.141 149.633 185.674 149.182L174.255 136.221L158.668 149.264L158.55 149.355C157.709 149.95 156.528 149.706 155.996 148.826L155.927 148.702L147.101 131.16ZM125.96 104.209C124.274 103.583 122.581 103.155 120.946 102.88L120.335 102.784L119.731 102.702C119.531 102.677 119.332 102.654 119.134 102.633L118.545 102.576L117.964 102.532C117.291 102.487 116.637 102.466 116.007 102.464L115.474 102.467L114.953 102.48C114.781 102.485 114.612 102.492 114.445 102.5L113.952 102.529C113.871 102.535 113.79 102.54 113.71 102.546L113.24 102.586L112.785 102.633L112.346 102.685L111.926 102.743L111.524 102.806L111.14 102.874L110.777 102.945L110.434 103.02L110.112 103.097C110.06 103.11 110.01 103.124 109.96 103.137L109.671 103.218L109.406 103.3L109.165 103.383L108.949 103.466L108.758 103.549L108.593 103.631C108.341 103.768 108.201 103.898 108.189 104.012C108.169 104.209 108.528 104.412 109.036 104.62L109.395 104.759L109.782 104.9L110.586 105.188C111.444 105.503 112.191 105.831 112.139 106.171C112.081 106.542 111.283 106.739 110.241 106.871L109.781 106.924L109.3 106.97L107.336 107.134L106.879 107.179C105.845 107.288 105.063 107.439 105.03 107.741C104.997 108.036 105.69 108.384 106.612 108.729L107.052 108.888L107.514 109.045C107.592 109.071 107.671 109.097 107.75 109.123L109.77 109.765L110.135 109.887C110.192 109.906 110.246 109.926 110.298 109.944L110.578 110.05C110.825 110.151 110.966 110.233 110.953 110.292C110.936 110.371 110.643 110.372 110.212 110.338L109.864 110.307L108.633 110.178L107.991 110.118L107.582 110.089C106.857 110.048 106.284 110.078 106.215 110.292C106.154 110.48 106.498 110.775 106.995 111.092L107.28 111.266L107.586 111.442L108.066 111.701L108.386 111.866L108.844 112.092L109.79 112.559L110.24 112.79C110.317 112.831 110.394 112.872 110.472 112.914L110.949 113.176C111.191 113.311 111.439 113.454 111.692 113.604L112.203 113.914L112.725 114.242C112.9 114.354 113.077 114.469 113.255 114.588L113.792 114.951C114.062 115.137 114.334 115.329 114.606 115.528L115.152 115.933L115.698 116.354C119.789 119.571 123.738 124.102 123.986 129.13C123.993 129.276 123.997 129.42 123.998 129.563L131.914 138.413L146.629 127.04L146.747 126.956C147.59 126.406 148.731 126.665 149.249 127.524L149.316 127.645L158.103 145.108L173.296 132.394L173.416 132.302C174.113 131.812 175.065 131.884 175.679 132.473L175.784 132.582L186.885 145.189L195.7 134.743C196.843 131.764 196.852 126.429 195.728 118.737C194.041 107.201 191.582 100.743 190.384 98.3793L187.635 114.827L187.591 114.953C187.195 115.972 185.962 116.394 185.019 115.833L184.903 115.758L171.363 106.259L165.21 116.96L165.135 117.08C164.581 117.889 163.464 118.097 162.653 117.541L162.54 117.456L149.938 107.28L146.516 113.401L146.444 113.52C145.837 114.435 144.536 114.583 143.736 113.829L143.635 113.726L140.035 109.752C137.606 109.763 135.736 109.406 134.426 108.683L133.968 108.424L133.262 108.01L131.505 106.953L130.695 106.478L130.133 106.16L129.552 105.843C128.468 105.264 127.282 104.7 125.96 104.209ZM69.5103 102.825L66.6293 104.488L63.4978 106.313L61.2752 107.623C58.0165 118.487 56.4516 132.182 58.5624 143.521L64.2811 130.395L64.3466 130.261C64.6543 129.692 65.2517 129.333 65.9026 129.329L66.0428 129.333L77.6633 130.161L82.1204 122.667C82.061 119.657 82.2432 116.612 82.7166 113.628C83.0029 111.823 83.4028 109.995 83.9129 108.166L77.4677 109.74L77.3133 109.771C76.7969 109.85 76.271 109.699 75.8762 109.359L75.7618 109.252L69.5103 102.825ZM144.959 78.9062C136.943 79.7913 134.337 80.881 128.577 83.2612C126.724 84.0271 124.838 84.8174 122.92 85.6321L120.02 86.8724L119.126 87.2007L118.576 87.4104L118.063 87.6127L117.587 87.8078L117.147 87.9955L116.745 88.1758L116.38 88.3489C116.322 88.3771 116.266 88.4051 116.211 88.4327L115.901 88.5947C115.415 88.8587 115.082 89.0922 114.903 89.2952C113.777 90.5742 113.887 93.0482 114.706 94.3971C115.507 95.7184 117.013 96.0706 119.048 96.1638L119.567 96.1821L120.108 96.1921L120.959 96.1969L122.203 96.1972L122.905 96.2012L123.628 96.2121C126.443 96.2717 129.727 96.5594 133.267 97.9297C133.439 97.9964 133.612 98.0657 133.785 98.1374L134.305 98.3595C134.479 98.4359 134.652 98.5146 134.826 98.5954L135.345 98.8442L135.86 99.1052C136.374 99.3719 136.881 99.6557 137.374 99.9529L137.861 100.254C141.076 102.293 144.068 110.771 144.613 109.513C144.977 108.675 146.057 106.742 147.855 103.716L147.929 103.594C148.478 102.772 149.604 102.556 150.421 103.116L150.536 103.201C158.1 110.018 162.307 113.415 163.158 113.392C164.009 113.369 166.037 109.842 169.242 102.812L169.317 102.692C169.845 101.921 170.891 101.691 171.697 102.167L171.816 102.244C180.038 108.519 184.414 111.588 184.944 111.453C185.475 111.317 186.076 108.139 186.749 101.92C184.777 99.2924 182.986 97.1566 181.377 95.5124L180.697 94.8314L180.309 94.4612L179.886 94.0699L179.364 93.6027L178.91 93.2074L178.22 92.6268L177.84 92.3158L177.227 91.8264L176.791 91.4863L176.093 90.9578L175.601 90.5948L175.087 90.2244L174.551 89.8477L173.994 89.4655C173.899 89.4014 173.804 89.3371 173.708 89.2727L173.119 88.8844L172.51 88.4932C172.304 88.3624 172.094 88.2313 171.881 88.1001L171.231 87.7062C171.121 87.6405 171.01 87.5749 170.898 87.5093L170.219 87.116C169.759 86.8542 169.287 86.5936 168.802 86.3354L168.064 85.9501C164.27 84.0037 159.24 82.7696 154.756 81.5616C153.967 81.3488 157.472 79.029 156.538 78.9062C155.383 78.7544 152.975 78.0211 144.959 78.9062ZM87.4999 85.4049L70.1089 88.8606L70.0796 88.903C67.238 93.1227 63.078 98.0216 61.2345 102.805L65.3125 101.149L68.9316 99.0673L69.0664 98.9974C69.7045 98.6998 70.4615 98.8053 70.9927 99.2658L71.1029 99.3699L77.6113 106.059L85.1891 104.207C86.3629 101.005 87.8698 97.8451 89.6909 94.8451L87.4999 85.4049ZM90.2811 69.3788C83.7046 73.4412 76.7411 78.1068 71.9227 84.217L88.4963 81.596L88.6311 81.5744C89.4802 81.4712 90.2858 81.9862 90.5436 82.7962L90.5814 82.9338L92.41 90.8068C95.2402 87.0085 98.6217 83.5962 102.509 80.8537L104.522 71.5232L90.2811 69.3788ZM139.615 86.8724C140.599 86.8724 141.396 87.665 141.396 88.6427C141.396 89.6204 140.599 90.413 139.615 90.413C138.631 90.413 137.833 89.6204 137.833 88.6427C137.833 87.665 138.631 86.8724 139.615 86.8724ZM112.744 60.2403C106.865 61.6547 95.6796 66.3712 95.3147 66.5563L106.926 68.3045L107.057 68.329C107.953 68.5317 108.548 69.3848 108.425 70.2897L108.401 70.4257L106.71 78.2664C107.196 78.0079 107.69 77.7596 108.189 77.5219C110.888 76.2376 113.873 75.2154 117.025 74.4243L122.776 66.868L112.744 60.2403ZM140.499 60.6104L144.807 64.4151L144.903 64.5062C145.541 65.158 145.575 66.188 144.986 66.8803L144.882 66.9924L139.582 72.2427C143.181 72.3466 146.656 72.6423 149.85 73.0893L150.912 73.2451L151.461 73.3307L154.919 73.8931L155.796 74.0292L156.667 74.1562L157.239 74.2339L157.804 74.3048L158.358 74.3678L158.9 74.4217L159.429 74.4655C159.515 74.4719 159.601 74.4779 159.687 74.4833L160.19 74.5099C162.25 74.5945 163.819 74.344 164.268 73.4007C164.422 73.0771 164.126 72.3312 163.388 71.3563L163.166 71.0717C163.048 70.9264 162.922 70.7769 162.786 70.6236L162.504 70.3123L162.197 69.9919C162.144 69.9379 162.09 69.8835 162.035 69.8287L161.692 69.4969C161.574 69.3852 161.452 69.2723 161.326 69.1586L160.936 68.8149C160.601 68.5264 160.242 68.2334 159.857 67.9383L159.384 67.5834C157.122 65.9243 154.089 64.2349 150.303 62.9737C147.444 62.0212 144.176 61.2334 140.499 60.6104ZM119.445 58.88C118.829 58.983 118.218 59.0911 117.611 59.2041L126.324 64.9605L126.432 65.0375C127.157 65.5963 127.334 66.6157 126.842 67.3835L126.759 67.5025L122.325 73.3287C126.323 72.6648 130.469 72.3155 134.552 72.2252L141.027 65.8131L134.149 59.7412C129.72 59.2638 124.818 58.9767 119.445 58.88Z" fill="white"/>
</g>
<defs>
<clipPath id="clip0_2175_22408">
<rect width="256" height="256" fill="white"/>
</clipPath>
</defs>
</svg>
