<svg width="256" height="256" viewBox="0 0 256 256" fill="none" xmlns="http://www.w3.org/2000/svg">
<g clip-path="url(#clip0_2175_22394)">
<path d="M256 128C256 57.3075 198.692 0 128 0C57.3075 0 0 57.3075 0 128C0 198.692 57.3075 256 128 256C198.692 256 256 198.692 256 128Z" fill="#512DBC"/>
<path d="M72.8052 119.532C71.7305 134.901 83.3111 148.252 98.7151 149.422L100.303 149.543L100.064 147.968C99.5752 144.755 99.4417 141.405 99.6793 138.008C100.889 120.71 111.353 107.368 123.001 107.728L125.493 107.805L124.086 105.746C119.269 98.6962 111.5 94.1566 102.799 93.5481C87.3142 92.4653 73.8844 104.097 72.8052 119.532ZM75.3334 119.708C76.3149 105.672 88.5317 95.091 102.622 96.0763L103.149 96.1185C109.98 96.7357 116.139 100.017 120.435 105.124L120.577 105.297L120.33 105.325C108.3 106.841 98.3547 120.618 97.1511 137.831L97.0924 138.807C96.9619 141.406 97.0377 143.977 97.3138 146.483L97.3426 146.729L97.1558 146.703C84.024 144.804 74.3972 133.096 75.3334 119.708Z" fill="white"/>
<path fill-rule="evenodd" clip-rule="evenodd" d="M125.9 82.0934C130.581 82.0934 169.701 53.6081 174.296 56.5303C176.472 57.9144 173.808 61.6924 171 65.8419L170.617 66.4098L170.234 66.9813C167.82 70.6088 165.618 74.3762 166.654 76.9808C167.35 78.73 177.042 74.8746 187.084 70.8626L188.341 70.3607C198.816 66.1779 209.279 62.0714 209.956 64.1993C211.879 70.2423 208.898 79.7998 205.197 89.8493L204.783 90.9677C204.644 91.3411 204.504 91.7151 204.364 92.0894L203.942 93.2132C201.402 99.9609 198.749 106.778 197.22 112.769C196.806 114.394 202.717 114.259 208.642 114.105L209.414 114.085C215.071 113.94 220.489 113.846 220.144 115.325C216.828 129.558 207.489 146.6 192.126 166.452C172.384 190.311 152.431 202.24 132.267 202.24C102.022 202.24 77.5035 187.934 77.5035 170.286C77.5035 160.638 76.1054 154.416 87.6922 148.557C90.0488 147.366 85.2536 144.608 82.5978 135.776C81.4874 132.083 80.2229 123.616 82.5978 120.438C84.9728 117.26 83.1864 122.283 90.2393 125.551C92.5034 126.6 92.9038 111.124 105.522 84.6497C108.775 77.8261 120.805 64.1993 123.352 64.1993C124.608 64.1993 124.545 68.5477 124.504 72.9573L124.497 73.7131C124.463 77.9899 124.521 82.0934 125.9 82.0934ZM140.977 164.209C140.422 162.911 138.925 162.31 137.632 162.866C127.33 165.106 120.023 167.153 115.711 169.008C111.46 170.836 105.923 174.314 99.0984 179.44C98.1618 179.843 97.5546 180.767 97.5546 181.789C97.5546 183.201 98.695 184.346 100.102 184.346H138.635C140.042 184.346 141.183 183.201 141.183 181.789V165.216C141.183 164.87 141.112 164.527 140.977 164.209Z" fill="white"/>
<path fill-rule="evenodd" clip-rule="evenodd" d="M117.145 126.364C117.792 126.639 118.094 127.39 117.819 128.039L112.943 139.565L133.527 126.939C134.727 126.202 136.295 126.582 137.029 127.786C137.179 128.034 137.287 128.305 137.347 128.588L139.246 137.556C139.539 138.937 138.661 140.295 137.285 140.588L111.966 145.989C111.086 146.177 108.233 144.162 108.508 143.512L115.475 127.041C115.749 126.391 116.497 126.088 117.145 126.364Z" fill="#512DBC"/>
<path fill-rule="evenodd" clip-rule="evenodd" d="M162.833 84.6498C177.604 84.6498 189.578 96.667 189.578 111.491C189.578 120.047 185.589 127.668 179.376 132.583C178.891 120.171 164.257 110.213 146.276 110.213C142.722 110.213 139.299 110.602 136.089 111.322C136.179 96.5757 148.118 84.6498 162.833 84.6498Z" fill="#512DBC"/>
<path d="M85.145 166.452C92.1788 166.452 97.8808 163.018 97.8808 158.783C97.8808 154.547 92.1788 151.114 85.145 151.114C78.1112 151.114 72.4092 154.547 72.4092 158.783C72.4092 163.018 78.1112 166.452 85.145 166.452Z" fill="#512DBC" stroke="white" stroke-width="2.5344"/>
<path fill-rule="evenodd" clip-rule="evenodd" d="M52.8452 170.753L87.8503 177.582L86.8782 182.601L51.8732 175.772L52.8452 170.753Z" fill="white"/>
<path d="M53.0637 109.478L52.0315 108.028L50.9993 109.478C44.0538 119.23 40.5757 130.138 40.5757 142.167C40.5757 154.195 44.0538 165.103 50.9993 174.856L52.0315 176.305L53.0637 174.856C60.0092 165.103 63.4874 154.195 63.4874 142.167C63.4874 130.138 60.0092 119.23 53.0637 109.478ZM52.0312 112.447L52.3404 112.915C58.085 121.726 60.953 131.467 60.953 142.167L60.9476 142.967C60.8078 153.353 57.9414 162.827 52.3404 171.418L52.0299 171.885L51.7226 171.418C45.978 162.607 43.1101 152.866 43.1101 142.167C43.1101 131.467 45.978 121.726 51.7226 112.915L52.0312 112.447Z" fill="white"/>
<path d="M56.0088 172.701L56.0451 171.568L54.9227 171.406C50.07 170.708 46.0132 171.681 42.8465 174.347C39.6809 177.013 38.0233 180.851 37.8658 185.765L37.8295 186.899L38.9519 187.06C43.8046 187.758 47.8614 186.786 51.0281 184.119C54.1937 181.453 55.8513 177.615 56.0088 172.701ZM53.4039 173.783L53.3798 174.042C53.0094 177.566 51.6795 180.257 49.3956 182.18L49.0945 182.425C46.862 184.174 44.0907 184.939 40.7236 184.704L40.4711 184.682L40.4948 184.425C40.8652 180.9 42.1951 178.209 44.479 176.286C46.7619 174.364 49.6308 173.517 53.151 173.763L53.4039 173.783Z" fill="white"/>
<path d="M145 168.494L146.795 170.283L138.978 178.128L131.18 175.519L123.54 180.632L116.053 178.127L111.034 183.166L96.3887 180.226L96.8874 177.741L110.198 180.412L115.368 175.226L123.163 177.834L130.806 172.722L138.292 175.224L145 168.494Z" fill="white"/>
</g>
<defs>
<clipPath id="clip0_2175_22394">
<rect width="256" height="256" fill="white"/>
</clipPath>
</defs>
</svg>
