<svg width="18" height="18" viewBox="0 0 18 18" fill="none" xmlns="http://www.w3.org/2000/svg">
<path d="M17.3543 14.3474C14.5315 13.2589 11.4043 11.904 11.1456 11.059V10.176C11.7755 9.49478 12.2276 8.66856 12.4619 7.77064C12.6222 7.65669 12.7573 7.51092 12.8587 7.34242C12.9601 7.17392 13.0257 6.98632 13.0514 6.79131C13.0771 6.59631 13.0623 6.3981 13.008 6.20905C12.9537 6.02001 12.8611 5.8442 12.7359 5.69258V3.69062C12.7359 1.6506 11.6022 0.25 9 0.25C6.39783 0.25 5.2641 1.6506 5.2641 3.69062V5.66975C5.13886 5.82136 5.04616 5.99718 4.99187 6.18622C4.93758 6.37526 4.92289 6.57348 4.94859 6.76848C4.9743 6.96348 5.0399 7.15109 5.14132 7.31959C5.24274 7.48809 5.37776 7.63386 5.53801 7.74781C5.76932 8.64691 6.22182 9.47382 6.8543 10.1532V11.0362C6.5956 11.8811 3.46849 13.2361 0.645667 14.3246C0.528804 14.3717 0.428617 14.4526 0.358112 14.5571C0.287606 14.6615 0.24999 14.7847 0.25 14.9107V17.1258C0.249988 17.29 0.314635 17.4477 0.430001 17.5645C0.545366 17.6813 0.702106 17.748 0.866256 17.75H17.1337C17.2978 17.748 17.4545 17.6813 17.5699 17.5645C17.6853 17.4477 17.75 17.29 17.75 17.1258V14.9107C17.7456 14.7886 17.7058 14.6704 17.6356 14.5704C17.5653 14.4704 17.4677 14.393 17.3543 14.3474Z" fill="white"/>
</svg>
