<svg width="24" height="24" viewBox="0 0 24 24" fill="none" xmlns="http://www.w3.org/2000/svg">
<path d="M20.7487 5.67919L18.9281 7.5L16.5 5.07213L18.3212 3.25135C18.6563 2.91622 19.1998 2.91622 19.5349 3.25135L20.7487 4.46543C21.0838 4.80054 21.0838 5.34407 20.7487 5.67919ZM7.76894 13.8L10.2 16.231L6.96 17.04L7.76894 13.8ZM18.12 8.17484L10.6948 15.6L8.22 13.1252L15.6446 5.7L18.12 8.17484ZM4.93151 6.19155V19.0685H17.8084V9.41078L19.74 8.12308V20.3561C19.74 20.8428 19.5828 21 19.0961 21H3.88151C3.39485 21 3 20.6058 3 20.1191V4.90386C3 4.4172 3.15657 4.26 3.64384 4.26H15.8769L13.9454 6.19155H4.93151Z" fill="white"/>
</svg>
