<svg width="14" height="15" viewBox="0 0 14 15" fill="none" xmlns="http://www.w3.org/2000/svg">
<path fill-rule="evenodd" clip-rule="evenodd" d="M7 0.5C3.13438 0.5 0 3.63438 0 7.5C0 11.3656 3.13438 14.5 7 14.5C10.8656 14.5 14 11.3656 14 7.5C14 3.63438 10.8656 0.5 7 0.5ZM7 11.5625C6.65469 11.5625 6.375 11.2828 6.375 10.9375C6.375 10.5922 6.65469 10.3125 7 10.3125C7.34531 10.3125 7.625 10.5922 7.625 10.9375C7.625 11.2828 7.34531 11.5625 7 11.5625ZM7.98281 8.13281C7.69375 8.24375 7.5 8.525 7.5 8.83281V9.1875C7.5 9.25625 7.44375 9.3125 7.375 9.3125H6.625C6.55625 9.3125 6.5 9.25625 6.5 9.1875V8.85156C6.5 8.49062 6.60469 8.13438 6.81094 7.8375C7.0125 7.54688 7.29375 7.325 7.625 7.19844C8.15625 6.99375 8.5 6.54844 8.5 6.0625C8.5 5.37344 7.82656 4.8125 7 4.8125C6.17344 4.8125 5.5 5.37344 5.5 6.0625V6.18125C5.5 6.25 5.44375 6.30625 5.375 6.30625H4.625C4.55625 6.30625 4.5 6.25 4.5 6.18125V6.0625C4.5 5.44844 4.76875 4.875 5.25625 4.44844C5.725 4.0375 6.34375 3.8125 7 3.8125C7.65625 3.8125 8.275 4.03906 8.74375 4.44844C9.23125 4.875 9.5 5.44844 9.5 6.0625C9.5 6.96562 8.90469 7.77812 7.98281 8.13281Z" fill="white"/>
</svg>
