<svg width="12" height="12" viewBox="0 0 12 12" fill="none" xmlns="http://www.w3.org/2000/svg">
<path fill-rule="evenodd" clip-rule="evenodd" d="M6 12C9.31371 12 12 9.31371 12 6C12 2.68629 9.31371 0 6 0C2.68629 0 0 2.68629 0 6C0 9.31371 2.68629 12 6 12ZM6.18292 3.53069C6.13529 3.5116 6.03411 3.48263 5.90941 3.51362C5.77455 3.54714 5.72045 3.60037 5.69883 3.63559L5.68539 3.66678L5.68458 5.22354L2.5 5.2235V6.71303L5.68458 6.71341L5.68459 8.37206L5.68693 8.37773L5.7124 8.41372C5.74161 8.44454 5.79929 8.4835 5.90941 8.49747C6.03029 8.51231 6.10889 8.45802 6.14107 8.43579C6.1431 8.43439 6.14493 8.43312 6.14659 8.432L9.21341 6.35849L9.25819 6.33236C9.33879 6.28016 9.5 6.14987 9.5 5.94284C9.5 5.74053 9.38558 5.62785 9.32837 5.58415L6.21247 3.54438L6.18292 3.53069Z" fill="white"/>
</svg>
