<svg width="16" height="16" viewBox="0 0 16 16" fill="none" xmlns="http://www.w3.org/2000/svg">
<rect opacity="0.01" width="16" height="16" fill="white"/>
<path fill-rule="evenodd" clip-rule="evenodd" d="M4.82448 4.41816V2.64126C4.82448 2.64126 4.82942 2.54819 4.64742 2.50672C4.49589 2.47288 4.35095 2.5778 4.35095 2.5778L1.28576 4.79977C1.28576 4.79977 1 4.95038 1 5.24569C1 5.53507 1.20259 5.65268 1.20259 5.65268L4.28588 7.81627C4.28588 7.81627 4.48105 7.88904 4.64741 7.8535C4.82694 7.81458 4.82529 7.68004 4.82529 7.68004V6.01653H7.82294C7.82294 6.01653 10.1865 6.34145 10.1865 7.23751C10.1865 7.23751 10.1478 4.41816 7.74717 4.41816H4.82447L4.82448 4.41816ZM11.1846 11.585V13.3627C11.1846 13.3627 11.2167 13.4711 11.4094 13.4973C11.5379 13.5142 11.6186 13.4474 11.6466 13.4271L14.7134 11.2025C14.7134 11.2025 15 11.0528 15 10.7566C15 10.4672 14.7966 10.3488 14.7966 10.3488L11.7125 8.18351C11.7125 8.18351 11.584 8.10397 11.4094 8.15051C11.1936 8.20805 11.1846 8.31974 11.1846 8.31974V9.98495H8.17129C8.17129 9.98495 5.80529 9.66003 5.80529 8.76143C5.80529 8.76143 5.84482 11.5833 8.24788 11.5833H11.1846L11.1846 11.585Z" fill="white"/>
</svg>
