<svg width="148" height="16" viewBox="0 0 148 16" fill="none" xmlns="http://www.w3.org/2000/svg">
<g filter="url(#filter0_b_4724_8299)">
<path fill-rule="evenodd" clip-rule="evenodd" d="M7.6294 0C8.68527 0 9.54128 0.83874 9.54128 1.87341C9.54128 2.68349 9.01645 3.37355 8.28183 3.6349L8.28193 13.3396C9.64955 13.2804 10.9213 13.0352 12.0512 12.6288L12.0512 5.18867C11.3165 4.92733 10.7917 4.23727 10.7917 3.42719C10.7917 2.39252 11.6477 1.55378 12.7036 1.55378C13.7595 1.55378 14.6155 2.39252 14.6155 3.42719C14.6155 4.23727 14.0906 4.92733 13.356 5.18867L13.3561 12.0547C14.6123 11.3893 15.6188 10.4885 16.2862 9.40083C15.8333 9.00096 15.5488 8.42192 15.5488 7.77777C15.5488 6.57144 16.5467 5.5936 17.7778 5.5936C17.8789 5.5936 17.9784 5.6002 18.0759 5.61297C19.7736 2.72046 23.4139 0.968534 27.7572 0.924249L27.9261 0.923389H34.9031C35.2634 0.923389 35.5555 1.2096 35.5555 1.56266C35.5555 1.90311 35.2839 2.1814 34.9415 2.20084L34.9031 2.20193H33.6527L33.6528 11.9206C34.3874 12.182 34.9122 12.872 34.9122 13.6821C34.9122 14.7167 34.0562 15.5555 33.0003 15.5555C31.9445 15.5555 31.0884 14.7167 31.0884 13.6821C31.0884 12.8719 31.6133 12.1818 32.3481 11.9206L32.3479 2.20193H28.5784L28.5786 11.9206C29.3132 12.182 29.838 12.872 29.838 13.6821C29.838 14.7167 28.982 15.5555 27.9261 15.5555C26.8703 15.5555 26.0143 14.7167 26.0143 13.6821C26.0143 12.872 26.5391 12.182 27.2737 11.9206L27.2736 2.21594C25.906 2.2751 24.6342 2.52031 23.5043 2.92673L23.5044 10.3669C24.239 10.6282 24.7638 11.3182 24.7638 12.1284C24.7638 13.1629 23.9078 14.0018 22.852 14.0018C21.7961 14.0018 20.9401 13.1629 20.9401 12.1284C20.9401 11.3182 21.4649 10.6282 22.1995 10.3669L22.1995 3.50081C20.9432 4.1663 19.9368 5.067 19.2694 6.15471C19.7222 6.55454 20.0068 7.13358 20.0068 7.77777C20.0068 8.98402 19.0088 9.96194 17.7778 9.96194C17.6767 9.96194 17.5772 9.95535 17.4796 9.94257C15.7819 12.8351 12.1417 14.587 7.79834 14.6313L7.6294 14.6322H0.652395C0.292087 14.6322 0 14.3459 0 13.9929C0 13.6524 0.271596 13.3741 0.614062 13.3547L0.652395 13.3536L1.90282 13.3535L1.90282 3.63491C1.16818 3.37357 0.643334 2.6835 0.643334 1.87341C0.643334 0.83874 1.49934 0 2.55521 0C3.61109 0 4.46709 0.83874 4.46709 1.87341C4.46709 2.68342 3.94235 3.37344 3.20782 3.63483L3.20761 13.3535H6.97693L6.97697 3.6349C6.24235 3.37355 5.71752 2.68349 5.71752 1.87341C5.71752 0.83874 6.57353 0 7.6294 0Z" fill="white"/>
<path d="M46 14.87V1H54.17V2.558H47.672V7.156H53.676V8.714H47.71V14.87H46Z" fill="white"/>
<path d="M60.2876 15.06C59.4642 15.06 58.7422 14.8953 58.1216 14.566C57.5136 14.2367 57.0386 13.7743 56.6966 13.179C56.3672 12.571 56.2026 11.868 56.2026 11.07V8.22C56.2026 7.40933 56.3672 6.70633 56.6966 6.111C57.0386 5.51567 57.5136 5.05333 58.1216 4.724C58.7422 4.39467 59.4642 4.23 60.2876 4.23C61.1109 4.23 61.8266 4.39467 62.4346 4.724C63.0552 5.05333 63.5302 5.51567 63.8596 6.111C64.2016 6.70633 64.3726 7.40933 64.3726 8.22V10.063H57.8746V11.07C57.8746 11.8933 58.0836 12.5267 58.5016 12.97C58.9196 13.4007 59.5149 13.616 60.2876 13.616C60.9462 13.616 61.4782 13.502 61.8836 13.274C62.2889 13.0333 62.5359 12.6787 62.6246 12.21H64.3346C64.2206 13.084 63.7899 13.7807 63.0426 14.3C62.3079 14.8067 61.3896 15.06 60.2876 15.06ZM57.8746 8.771H62.7006V8.22C62.7006 7.39667 62.4916 6.76333 62.0736 6.32C61.6682 5.87667 61.0729 5.655 60.2876 5.655C59.5149 5.655 58.9196 5.87667 58.5016 6.32C58.0836 6.76333 57.8746 7.39667 57.8746 8.22V8.771Z" fill="white"/>
<path d="M70.6802 15.06C69.8568 15.06 69.1348 14.8953 68.5142 14.566C67.9062 14.2367 67.4312 13.7743 67.0892 13.179C66.7598 12.571 66.5952 11.868 66.5952 11.07V8.22C66.5952 7.40933 66.7598 6.70633 67.0892 6.111C67.4312 5.51567 67.9062 5.05333 68.5142 4.724C69.1348 4.39467 69.8568 4.23 70.6802 4.23C71.5035 4.23 72.2192 4.39467 72.8272 4.724C73.4478 5.05333 73.9228 5.51567 74.2522 6.111C74.5942 6.70633 74.7652 7.40933 74.7652 8.22V10.063H68.2672V11.07C68.2672 11.8933 68.4762 12.5267 68.8942 12.97C69.3122 13.4007 69.9075 13.616 70.6802 13.616C71.3388 13.616 71.8708 13.502 72.2762 13.274C72.6815 13.0333 72.9285 12.6787 73.0172 12.21H74.7272C74.6132 13.084 74.1825 13.7807 73.4352 14.3C72.7005 14.8067 71.7822 15.06 70.6802 15.06ZM68.2672 8.771H73.0932V8.22C73.0932 7.39667 72.8842 6.76333 72.4662 6.32C72.0608 5.87667 71.4655 5.655 70.6802 5.655C69.9075 5.655 69.3122 5.87667 68.8942 6.32C68.4762 6.76333 68.2672 7.39667 68.2672 8.22V8.771Z" fill="white"/>
<path d="M87.2093 14.87V1H89.4513L90.9333 5.484C91.0726 5.88933 91.1866 6.29467 91.2753 6.7C91.3766 7.09267 91.4526 7.39667 91.5033 7.612C91.554 7.39667 91.63 7.09267 91.7313 6.7C91.8326 6.29467 91.9466 5.883 92.0733 5.465L93.4793 1H95.7213V14.87H94.0493V8.315C94.0493 7.18767 94.1 6.07933 94.2013 4.99C94.3026 3.90067 94.4166 2.85567 94.5433 1.855L92.2823 8.79H90.6483L88.3683 1.855C88.5076 2.81767 88.628 3.82467 88.7293 4.876C88.8306 5.92733 88.8813 7.07367 88.8813 8.315V14.87H87.2093Z" fill="white"/>
<path d="M100.946 15.06C99.8439 15.06 98.9762 14.7813 98.3429 14.224C97.7096 13.654 97.3929 12.8877 97.3929 11.925C97.3929 10.9497 97.7096 10.1833 98.3429 9.626C98.9762 9.06867 99.8312 8.79 100.908 8.79H104.138V7.745C104.138 7.11167 103.942 6.61767 103.549 6.263C103.169 5.90833 102.637 5.731 101.953 5.731C101.345 5.731 100.832 5.864 100.414 6.13C99.9959 6.396 99.7362 6.74433 99.6349 7.175H97.9249C97.9882 6.59233 98.1972 6.07933 98.5519 5.636C98.9192 5.19267 99.3942 4.85067 99.9769 4.61C100.572 4.35667 101.231 4.23 101.953 4.23C103.156 4.23 104.106 4.54033 104.803 5.161C105.5 5.78167 105.848 6.624 105.848 7.688V14.87H104.176V12.875H104.157C104.081 13.5463 103.752 14.0783 103.169 14.471C102.599 14.8637 101.858 15.06 100.946 15.06ZM101.364 13.711C102.175 13.711 102.84 13.5083 103.359 13.103C103.878 12.6977 104.138 12.1783 104.138 11.545V10.063H100.946C100.376 10.063 99.9262 10.2213 99.5969 10.538C99.2676 10.8547 99.1029 11.2853 99.1029 11.83C99.1029 12.4127 99.2992 12.875 99.6919 13.217C100.097 13.5463 100.655 13.711 101.364 13.711Z" fill="white"/>
<path d="M108.621 14.87V4.42H110.331V6.415H110.35C110.439 5.71833 110.724 5.18 111.205 4.8C111.687 4.42 112.326 4.23 113.124 4.23C114.214 4.23 115.081 4.57833 115.727 5.275C116.373 5.959 116.696 6.89 116.696 8.068V8.79H114.986V8.22C114.986 7.422 114.784 6.80767 114.378 6.377C113.973 5.93367 113.384 5.712 112.611 5.712C111.091 5.712 110.331 6.548 110.331 8.22V14.87H108.621Z" fill="white"/>
<path d="M118.748 14.87V1H120.458V8.733H122.472L125.512 4.42H127.469L123.954 9.398L127.526 14.87H125.531L122.491 10.215H120.458V14.87H118.748Z" fill="white"/>
<path d="M133.036 15.06C132.212 15.06 131.49 14.8953 130.87 14.566C130.262 14.2367 129.787 13.7743 129.445 13.179C129.115 12.571 128.951 11.868 128.951 11.07V8.22C128.951 7.40933 129.115 6.70633 129.445 6.111C129.787 5.51567 130.262 5.05333 130.87 4.724C131.49 4.39467 132.212 4.23 133.036 4.23C133.859 4.23 134.575 4.39467 135.183 4.724C135.803 5.05333 136.278 5.51567 136.608 6.111C136.95 6.70633 137.121 7.40933 137.121 8.22V10.063H130.623V11.07C130.623 11.8933 130.832 12.5267 131.25 12.97C131.668 13.4007 132.263 13.616 133.036 13.616C133.694 13.616 134.226 13.502 134.632 13.274C135.037 13.0333 135.284 12.6787 135.373 12.21H137.083C136.969 13.084 136.538 13.7807 135.791 14.3C135.056 14.8067 134.138 15.06 133.036 15.06ZM130.623 8.771H135.449V8.22C135.449 7.39667 135.24 6.76333 134.822 6.32C134.416 5.87667 133.821 5.655 133.036 5.655C132.263 5.655 131.668 5.87667 131.25 6.32C130.832 6.76333 130.623 7.39667 130.623 8.22V8.771Z" fill="white"/>
<path d="M144.568 14.87C143.707 14.87 143.017 14.623 142.497 14.129C141.978 13.6223 141.718 12.951 141.718 12.115V5.978H138.773V4.42H141.718V1.475H143.428V4.42H147.608V5.978H143.428V12.115C143.428 12.4697 143.53 12.761 143.732 12.989C143.948 13.2043 144.226 13.312 144.568 13.312H147.418V14.87H144.568Z" fill="white"/>
</g>
<defs>
<filter id="filter0_b_4724_8299" x="-34" y="-34" width="215.608" height="83.5557" filterUnits="userSpaceOnUse" color-interpolation-filters="sRGB">
<feFlood flood-opacity="0" result="BackgroundImageFix"/>
<feGaussianBlur in="BackgroundImage" stdDeviation="17"/>
<feComposite in2="SourceAlpha" operator="in" result="effect1_backgroundBlur_4724_8299"/>
<feBlend mode="normal" in="SourceGraphic" in2="effect1_backgroundBlur_4724_8299" result="shape"/>
</filter>
</defs>
</svg>
